<svg width="760" height="180" viewBox="0 0 760 180" fill="none" xmlns="http://www.w3.org/2000/svg">
  <rect x="0" y="18" width="144" height="144" rx="28" fill="#1D4F91"/>
  <path d="M34 125V55H48L88 106V55H102V125H88L48 73V125H34Z" fill="white"/>
  <path d="M112 60H130L108 95H130V108H90V96L112 60Z" fill="#D7E6FA"/>
  <path d="M114 108H130V126H114V108Z" fill="#D7E6FA"/>
  <path d="M184 70H202V126H184V70Z" fill="#0F172A"/>
  <path d="M214 70H235L268 112V70H286V126H267L232 82V126H214V70Z" fill="#0F172A"/>
  <path d="M302 70H356V86H321V92H352V107H321V126H302V70Z" fill="#0F172A"/>
  <path d="M365 70H386L405 102L424 70H445L416 117V126H397V117L365 70Z" fill="#0F172A"/>
  <path d="M468 70H525V86H487V92H520V107H487V126H468V70Z" fill="#0F172A"/>
  <path d="M536 70H556V126H536V70Z" fill="#0F172A"/>
  <path d="M568 70H588V110H631V126H568V70Z" fill="#0F172A"/>
  <path d="M648 70H666V91H686V70H704V126H686V106H666V126H648V70Z" fill="#0F172A"/>
</svg>
